<svg width="55" height="55" viewBox="0 0 55 55" fill="none" xmlns="http://www.w3.org/2000/svg">
<path d="M42.5652 45.9575C40.7913 45.9575 39.2697 47.054 38.64 48.6046H34.9416V51.7811H38.64C39.2697 53.3316 40.7913 54.4281 42.5652 54.4281C44.9005 54.4281 46.8005 52.5282 46.8005 50.1928C46.8005 47.8575 44.9005 45.9575 42.5652 45.9575ZM49.9769 36.9575C49.3044 36.957 48.6415 37.1178 48.0439 37.4263L44.1114 34.1491C43.8259 33.9113 43.4661 33.7811 43.0946 33.7811H34.9416V36.9575H42.5195L45.9676 39.831C45.8179 40.2694 45.7416 40.7295 45.7416 41.1928C45.7416 43.5282 47.6416 45.4281 49.9769 45.4281C52.3123 45.4281 54.2122 43.5282 54.2122 41.1928C54.2122 38.8575 52.3123 36.9575 49.9769 36.9575ZM49.9769 23.7222C48.2031 23.7222 46.6814 24.8188 46.0518 26.3693H34.9416V29.5458H46.0518C46.6814 31.0963 48.2031 32.1928 49.9769 32.1928C52.3123 32.1928 54.2122 30.2929 54.2122 27.9575C54.2122 25.6222 52.3123 23.7222 49.9769 23.7222ZM44.1114 21.7658L48.0439 18.4887C48.6415 18.7973 49.3044 18.958 49.9769 18.9575C52.3123 18.9575 54.2122 17.0576 54.2122 14.7222C54.2122 12.3869 52.3123 10.4869 49.9769 10.4869C47.6416 10.4869 45.7416 12.3869 45.7416 14.7222C45.7416 15.1987 45.8219 15.6564 45.9676 16.0841L42.5195 18.9575H34.9416V22.134H43.0946C43.4661 22.134 43.8259 22.0038 44.1114 21.7658ZM42.5652 9.95753C44.9005 9.95753 46.8005 8.05757 46.8005 5.72223C46.8005 3.38689 44.9005 1.48694 42.5652 1.48694C40.7913 1.48694 39.2697 2.58346 38.64 4.134H34.9416V7.31047H38.64C39.2697 8.86101 40.7913 9.95753 42.5652 9.95753ZM15.8828 27.9575C15.8828 34.0878 20.8702 39.0752 27.0005 39.0752C28.7046 39.0752 30.3202 38.6892 31.7652 38.001V17.9141C30.3202 17.2258 28.7046 16.8399 27.0005 16.8399C20.8702 16.8399 15.8828 21.8273 15.8828 27.9575Z" fill="#FE5602"/>
<path d="M30.1765 0.95752H23.8235C22.9464 0.95752 22.2353 1.66863 22.2353 2.54575V4.61311C19.2482 5.22308 16.4059 6.40057 13.8625 8.08171L12.4003 6.61958C11.78 5.99932 10.7745 5.99932 10.1542 6.61958L5.66206 11.1117C5.0418 11.7319 5.0418 12.7376 5.66206 13.3578L7.12419 14.8201C5.44305 17.3634 4.26556 20.2057 3.65559 23.1928H1.58824C0.711106 23.1928 0 23.9039 0 24.781V31.134C0 32.0111 0.711106 32.7222 1.58824 32.7222H3.65559C4.26557 35.7094 5.44306 38.5517 7.12419 41.0951L5.66195 42.5573C5.36415 42.8551 5.19684 43.2591 5.19684 43.6803C5.19684 44.1014 5.36415 44.5054 5.66195 44.8032L10.1542 49.2955C10.7745 49.9157 11.78 49.9157 12.4003 49.2955L13.8625 47.8333C16.4059 49.5144 19.2482 50.6919 22.2353 51.3019V53.3693C22.2353 54.2464 22.9464 54.9575 23.8235 54.9575H30.1765C31.0536 54.9575 31.7647 54.2464 31.7647 53.3693V41.434C30.2737 41.9628 28.6701 42.2516 27 42.2516C19.1182 42.2516 12.7059 35.8393 12.7059 27.9575C12.7059 20.0757 19.1182 13.6634 27 13.6634C28.6701 13.6634 30.2737 13.9522 31.7647 14.481V2.54575C31.7647 1.66863 31.0536 0.95752 30.1765 0.95752Z" fill="white"/>
</svg>
