<svg width="65" height="55" viewBox="0 0 65 55" fill="none" xmlns="http://www.w3.org/2000/svg">
<path d="M-0.000175476 27.5211C-0.000175476 24.5651 1.58296 21.8625 4.10171 20.4035C3.95076 19.7733 3.87475 19.1274 3.87525 18.4794C3.87525 14.2502 7.08431 10.7563 11.1952 10.3046C11.2942 5.8552 14.9444 2.2662 19.4172 2.2662C23.5227 2.2662 26.9349 5.29029 27.5442 9.22789C28.5882 9.40572 29.6144 9.67559 30.6108 10.0344L33.0812 7.61562C33.2359 7.46416 33.434 7.36474 33.648 7.33119C33.8619 7.29764 34.0809 7.33163 34.2746 7.42845C35.7059 8.14475 37.0549 9.01488 38.2977 10.0234C38.4577 10.1533 38.5755 10.3277 38.6362 10.5246C38.697 10.7215 38.6979 10.932 38.6389 11.1294L37.6001 14.6033C37.981 15.0048 38.3433 15.4235 38.6857 15.8583L43.3962 12.7681V9.44525C41.5221 8.97854 40.129 7.28185 40.129 5.26531C40.129 2.89003 42.0614 0.95752 44.4368 0.95752C46.8122 0.95752 48.7446 2.8899 48.7446 5.26531C48.7446 7.28185 47.3516 8.97854 45.4774 9.44525V13.33C45.4774 13.5027 45.4344 13.6726 45.3524 13.8244C45.2704 13.9763 45.1519 14.1054 45.0075 14.2001L39.8766 17.5659C39.9836 17.7392 40.0875 17.9144 40.1884 18.0913L43.613 17.8281C43.8303 17.8117 44.0473 17.8638 44.2335 17.9771C44.4197 18.0904 44.5657 18.2592 44.6509 18.4598C44.8113 18.839 44.9608 19.2228 45.0994 19.6105L48.6269 16.5258C48.7493 16.4187 48.8952 16.3418 49.0528 16.3013L52.2822 15.4716C52.2822 15.4608 52.2814 15.4501 52.2814 15.4393C52.2814 13.064 54.2139 11.1315 56.5892 11.1315C58.9645 11.1315 60.8969 13.0639 60.8969 15.4393C60.8969 17.8147 58.9645 19.7471 56.5892 19.7471C54.9547 19.7471 53.5299 18.832 52.8002 17.4872L49.8105 18.2554L45.7546 21.8022C45.8807 22.316 45.9884 22.8341 46.0774 23.3556C46.1111 23.5548 46.0861 23.7594 46.0055 23.9445C45.9249 24.1297 45.7921 24.2874 45.6234 24.3984L42.5337 26.432C42.5445 26.7585 42.5456 27.0847 42.5387 27.4106L56.0246 27.3548C56.3884 25.8784 57.5233 24.6378 59.0929 24.2171C61.3873 23.6025 63.754 24.9688 64.3688 27.2632C64.9837 29.5576 63.6171 31.9243 61.3229 32.5391C60.9596 32.6367 60.5852 32.6862 60.209 32.6864C58.3072 32.6864 56.5622 31.4154 56.0471 29.493C56.042 29.4741 56.0381 29.4549 56.0333 29.4359L42.3742 29.4924C42.3518 29.6542 42.3278 29.8156 42.301 29.9768L45.1227 31.9974C45.298 32.1229 45.43 32.2999 45.5004 32.5038C45.5708 32.7077 45.5761 32.9284 45.5156 33.1354C45.3486 33.7037 45.1587 34.2651 44.9461 34.818L48.9295 38.3013L51.9193 39.0694C52.649 37.7247 54.0737 36.8095 55.7082 36.8095C58.0835 36.8095 60.016 38.7418 60.016 41.1171C60.016 43.4924 58.0835 45.4249 55.7082 45.4249C53.3329 45.4249 51.4006 43.4924 51.4006 41.1171C51.4006 41.1063 51.4013 41.0958 51.4013 41.085L48.1719 40.2552C48.0143 40.2147 47.8683 40.1378 47.7459 40.0306L44.0671 36.8136C43.8441 37.2592 43.606 37.697 43.3531 38.1263C43.2507 38.2997 43.1001 38.4397 42.9197 38.5293C42.7393 38.6188 42.5368 38.6541 42.3367 38.6307L38.651 38.2011C38.5889 38.2794 38.5236 38.3551 38.4604 38.4325L43.4641 41.7151C43.6084 41.8097 43.7269 41.9388 43.8089 42.0907C43.891 42.2426 43.9339 42.4125 43.9339 42.5851V46.4698C45.808 46.9365 47.2011 48.6332 47.2011 50.6497C47.2011 53.025 45.2687 54.9575 42.8933 54.9575C40.5179 54.9575 38.5855 53.0251 38.5855 50.6497C38.5855 48.6332 39.9785 46.9365 41.8527 46.4698V43.1469L37.0323 39.9846C36.9232 40.0902 36.815 40.1967 36.7031 40.2995L37.5868 43.7428C37.6391 43.9465 37.6284 44.1612 37.5562 44.3587C37.484 44.5562 37.3536 44.7272 37.1823 44.8492C35.6406 45.9471 33.9621 46.839 32.1895 47.5023C31.9978 47.5741 31.7891 47.5877 31.5897 47.5414C31.3903 47.4951 31.2089 47.3909 31.0684 47.242L28.5614 44.5863C28.2556 44.6567 27.9483 44.7163 27.6415 44.7705V46.0344C27.6415 46.1254 27.6295 46.2159 27.6061 46.3037L27.588 46.3715C27.3886 47.1193 26.9738 48.6752 25.7507 50.0545C24.241 51.757 22.0349 52.6205 19.1938 52.6205C17.0377 52.6205 14.9998 51.792 13.4557 50.2879C12.1516 49.0174 11.3198 47.3829 11.0585 45.6087C6.8788 45.2238 3.59455 41.6979 3.59455 37.4195C3.59518 36.4677 3.76011 35.5232 4.08207 34.6275C2.83877 33.9042 1.8073 32.8669 1.09093 31.6196C0.374565 30.3723 -0.00156403 28.9587 0.000213623 27.5203L-0.000175476 27.5211ZM27.6412 35.5449C31.6518 34.0788 34.1644 29.9491 33.4866 25.608C32.9759 22.3371 30.6926 19.6082 27.6412 18.4782V35.5449ZM5.10588 32.8149C5.8996 31.8534 6.66183 31.5262 8.23651 30.9366C8.36467 30.8878 8.50121 30.8649 8.63827 30.869C8.77534 30.8732 8.91024 30.9044 9.0352 30.9609C9.16016 31.0173 9.27274 31.0979 9.36644 31.1981C9.46015 31.2982 9.53313 31.4158 9.58122 31.5443C9.6293 31.6727 9.65153 31.8094 9.64662 31.9464C9.6417 32.0834 9.60975 32.2182 9.5526 32.3428C9.49545 32.4675 9.41422 32.5796 9.31359 32.6728C9.21296 32.7659 9.09491 32.8383 8.96622 32.8856C7.18343 33.5532 6.97388 33.6909 6.33183 34.6565C5.89686 35.5176 5.67535 36.4469 5.67535 37.4203C5.67535 40.5298 7.99834 43.1054 10.9998 43.507C11.0408 42.4376 11.1499 41.9573 11.7042 40.4262C11.8006 40.17 11.9941 39.9622 12.2427 39.8477C12.4913 39.7332 12.775 39.7212 13.0324 39.8144C13.2897 39.9076 13.5 40.0984 13.6177 40.3455C13.7354 40.5926 13.751 40.8761 13.6611 41.1347C13.0943 42.7005 13.0923 42.7892 13.0611 44.2715L13.0546 44.5754C13.0546 44.5783 13.0541 44.5809 13.0539 44.5837C13.153 47.9247 15.8475 50.5402 19.1936 50.5402C24.2484 50.5402 25.1751 47.3389 25.5602 45.8988V10.4903C25.5602 7.103 22.8044 4.34725 19.4173 4.34725C16.0302 4.34725 13.2744 7.103 13.2744 10.4903C13.2744 10.7187 13.2875 10.9507 13.3132 11.18L13.315 11.1885C13.4585 12.1168 13.847 12.659 15.3391 12.4921C15.4753 12.4761 15.6133 12.4873 15.7452 12.5248C15.877 12.5624 16.0002 12.6256 16.1076 12.711C16.2149 12.7963 16.3044 12.902 16.3707 13.022C16.4371 13.142 16.4791 13.2739 16.4943 13.4102C16.5095 13.5465 16.4976 13.6844 16.4594 13.8161C16.4211 13.9478 16.3572 14.0706 16.2713 14.1775C16.1854 14.2844 16.0792 14.3732 15.9588 14.4389C15.8385 14.5047 15.7063 14.5459 15.57 14.5604C15.3349 14.5867 15.1081 14.5996 14.8893 14.5996C13.1884 14.5996 11.9932 13.8117 11.4763 12.3678C8.38063 12.6811 5.95657 15.3024 5.95657 18.4793C5.95657 18.8309 5.98648 19.1787 6.04489 19.5208C7.307 19.1609 8.41211 19.3765 9.41329 19.5742C9.68237 19.6294 9.91873 19.7888 10.0708 20.0175C10.2229 20.2463 10.2783 20.5259 10.2251 20.7954C10.1718 21.0648 10.0142 21.3023 9.7865 21.456C9.55885 21.6098 9.27965 21.6672 9.0098 21.6159C7.75991 21.3687 6.94084 21.2463 5.90142 21.8197C5.8953 21.8231 5.88893 21.8252 5.88282 21.8284C5.84496 21.8511 5.80607 21.8724 5.76471 21.8905C3.52705 22.8695 2.08127 25.0796 2.08127 27.521C2.08011 28.5905 2.35865 29.6418 2.88927 30.5704C3.41989 31.499 4.18413 32.2727 5.10614 32.8147L5.10588 32.8149Z" fill="white"/>
<mask id="mask0_110_59496" style="mask-type:alpha" maskUnits="userSpaceOnUse" x="0" y="0" width="65" height="55">
<path d="M-0.000175476 27.5211C-0.000175476 24.5651 1.58296 21.8625 4.10171 20.4035C3.95076 19.7733 3.87475 19.1274 3.87525 18.4794C3.87525 14.2502 7.08431 10.7563 11.1952 10.3046C11.2942 5.8552 14.9444 2.2662 19.4172 2.2662C23.5227 2.2662 26.9349 5.29029 27.5442 9.22789C28.5882 9.40572 29.6144 9.67559 30.6108 10.0344L33.0812 7.61562C33.2359 7.46416 33.434 7.36474 33.648 7.33119C33.8619 7.29764 34.0809 7.33163 34.2746 7.42845C35.7059 8.14475 37.0549 9.01488 38.2977 10.0234C38.4577 10.1533 38.5755 10.3277 38.6362 10.5246C38.697 10.7215 38.6979 10.932 38.6389 11.1294L37.6001 14.6033C37.981 15.0048 38.3433 15.4235 38.6857 15.8583L43.3962 12.7681V9.44525C41.5221 8.97854 40.129 7.28185 40.129 5.26531C40.129 2.89003 42.0614 0.95752 44.4368 0.95752C46.8122 0.95752 48.7446 2.8899 48.7446 5.26531C48.7446 7.28185 47.3516 8.97854 45.4774 9.44525V13.33C45.4774 13.5027 45.4344 13.6726 45.3524 13.8244C45.2704 13.9763 45.1519 14.1054 45.0075 14.2001L39.8766 17.5659C39.9836 17.7392 40.0875 17.9144 40.1884 18.0913L43.613 17.8281C43.8303 17.8117 44.0473 17.8638 44.2335 17.9771C44.4197 18.0904 44.5657 18.2592 44.6509 18.4598C44.8113 18.839 44.9608 19.2228 45.0994 19.6105L48.6269 16.5258C48.7493 16.4187 48.8952 16.3418 49.0528 16.3013L52.2822 15.4716C52.2822 15.4608 52.2814 15.4501 52.2814 15.4393C52.2814 13.064 54.2139 11.1315 56.5892 11.1315C58.9645 11.1315 60.8969 13.0639 60.8969 15.4393C60.8969 17.8147 58.9645 19.7471 56.5892 19.7471C54.9547 19.7471 53.5299 18.832 52.8002 17.4872L49.8105 18.2554L45.7546 21.8022C45.8807 22.316 45.9884 22.8341 46.0774 23.3556C46.1111 23.5548 46.0861 23.7594 46.0055 23.9445C45.9249 24.1297 45.7921 24.2874 45.6234 24.3984L42.5337 26.432C42.5445 26.7585 42.5456 27.0847 42.5387 27.4106L56.0246 27.3548C56.3884 25.8784 57.5233 24.6378 59.0929 24.2171C61.3873 23.6025 63.754 24.9688 64.3688 27.2632C64.9837 29.5576 63.6171 31.9243 61.3229 32.5391C60.9596 32.6367 60.5852 32.6862 60.209 32.6864C58.3072 32.6864 56.5622 31.4154 56.0471 29.493C56.042 29.4741 56.0381 29.4549 56.0333 29.4359L42.3742 29.4924C42.3518 29.6542 42.3278 29.8156 42.301 29.9768L45.1227 31.9974C45.298 32.1229 45.43 32.2999 45.5004 32.5038C45.5708 32.7077 45.5761 32.9284 45.5156 33.1354C45.3486 33.7037 45.1587 34.2651 44.9461 34.818L48.9295 38.3013L51.9193 39.0694C52.649 37.7247 54.0737 36.8095 55.7082 36.8095C58.0835 36.8095 60.016 38.7418 60.016 41.1171C60.016 43.4924 58.0835 45.4249 55.7082 45.4249C53.3329 45.4249 51.4006 43.4924 51.4006 41.1171C51.4006 41.1063 51.4013 41.0958 51.4013 41.085L48.1719 40.2552C48.0143 40.2147 47.8683 40.1378 47.7459 40.0306L44.0671 36.8136C43.8441 37.2592 43.606 37.697 43.3531 38.1263C43.2507 38.2997 43.1001 38.4397 42.9197 38.5293C42.7393 38.6188 42.5368 38.6541 42.3367 38.6307L38.651 38.2011C38.5889 38.2794 38.5236 38.3551 38.4604 38.4325L43.4641 41.7151C43.6084 41.8097 43.7269 41.9388 43.8089 42.0907C43.891 42.2426 43.9339 42.4125 43.9339 42.5851V46.4698C45.808 46.9365 47.2011 48.6332 47.2011 50.6497C47.2011 53.025 45.2687 54.9575 42.8933 54.9575C40.5179 54.9575 38.5855 53.0251 38.5855 50.6497C38.5855 48.6332 39.9785 46.9365 41.8527 46.4698V43.1469L37.0323 39.9846C36.9232 40.0902 36.815 40.1967 36.7031 40.2995L37.5868 43.7428C37.6391 43.9465 37.6284 44.1612 37.5562 44.3587C37.484 44.5562 37.3536 44.7272 37.1823 44.8492C35.6406 45.9471 33.9621 46.839 32.1895 47.5023C31.9978 47.5741 31.7891 47.5877 31.5897 47.5414C31.3903 47.4951 31.2089 47.3909 31.0684 47.242L28.5614 44.5863C28.2556 44.6567 27.9483 44.7163 27.6415 44.7705V46.0344C27.6415 46.1254 27.6295 46.2159 27.6061 46.3037L27.588 46.3715C27.3886 47.1193 26.9738 48.6752 25.7507 50.0545C24.241 51.757 22.0349 52.6205 19.1938 52.6205C17.0377 52.6205 14.9998 51.792 13.4557 50.2879C12.1516 49.0174 11.3198 47.3829 11.0585 45.6087C6.8788 45.2238 3.59455 41.6979 3.59455 37.4195C3.59518 36.4677 3.76011 35.5232 4.08207 34.6275C2.83877 33.9042 1.8073 32.8669 1.09093 31.6196C0.374565 30.3723 -0.00156403 28.9587 0.000213623 27.5203L-0.000175476 27.5211ZM27.6412 35.5449C31.6518 34.0788 34.1644 29.9491 33.4866 25.608C32.9759 22.3371 30.6926 19.6082 27.6412 18.4782V35.5449ZM5.10588 32.8149C5.8996 31.8534 6.66183 31.5262 8.23651 30.9366C8.36467 30.8878 8.50121 30.8649 8.63827 30.869C8.77534 30.8732 8.91024 30.9044 9.0352 30.9609C9.16016 31.0173 9.27274 31.0979 9.36644 31.1981C9.46015 31.2982 9.53313 31.4158 9.58122 31.5443C9.6293 31.6727 9.65153 31.8094 9.64662 31.9464C9.6417 32.0834 9.60975 32.2182 9.5526 32.3428C9.49545 32.4675 9.41422 32.5796 9.31359 32.6728C9.21296 32.7659 9.09491 32.8383 8.96622 32.8856C7.18343 33.5532 6.97388 33.6909 6.33183 34.6565C5.89686 35.5176 5.67535 36.4469 5.67535 37.4203C5.67535 40.5298 7.99834 43.1054 10.9998 43.507C11.0408 42.4376 11.1499 41.9573 11.7042 40.4262C11.8006 40.17 11.9941 39.9622 12.2427 39.8477C12.4913 39.7332 12.775 39.7212 13.0324 39.8144C13.2897 39.9076 13.5 40.0984 13.6177 40.3455C13.7354 40.5926 13.751 40.8761 13.6611 41.1347C13.0943 42.7005 13.0923 42.7892 13.0611 44.2715L13.0546 44.5754C13.0546 44.5783 13.0541 44.5809 13.0539 44.5837C13.153 47.9247 15.8475 50.5402 19.1936 50.5402C24.2484 50.5402 25.1751 47.3389 25.5602 45.8988V10.4903C25.5602 7.103 22.8044 4.34725 19.4173 4.34725C16.0302 4.34725 13.2744 7.103 13.2744 10.4903C13.2744 10.7187 13.2875 10.9507 13.3132 11.18L13.315 11.1885C13.4585 12.1168 13.847 12.659 15.3391 12.4921C15.4753 12.4761 15.6133 12.4873 15.7452 12.5248C15.877 12.5624 16.0002 12.6256 16.1076 12.711C16.2149 12.7963 16.3044 12.902 16.3707 13.022C16.4371 13.142 16.4791 13.2739 16.4943 13.4102C16.5095 13.5465 16.4976 13.6844 16.4594 13.8161C16.4211 13.9478 16.3572 14.0706 16.2713 14.1775C16.1854 14.2844 16.0792 14.3732 15.9588 14.4389C15.8385 14.5047 15.7063 14.5459 15.57 14.5604C15.3349 14.5867 15.1081 14.5996 14.8893 14.5996C13.1884 14.5996 11.9932 13.8117 11.4763 12.3678C8.38063 12.6811 5.95657 15.3024 5.95657 18.4793C5.95657 18.8309 5.98648 19.1787 6.04489 19.5208C7.307 19.1609 8.41211 19.3765 9.41329 19.5742C9.68237 19.6294 9.91873 19.7888 10.0708 20.0175C10.2229 20.2463 10.2783 20.5259 10.2251 20.7954C10.1718 21.0648 10.0142 21.3023 9.7865 21.456C9.55885 21.6098 9.27965 21.6672 9.0098 21.6159C7.75991 21.3687 6.94084 21.2463 5.90142 21.8197C5.8953 21.8231 5.88893 21.8252 5.88282 21.8284C5.84496 21.8511 5.80607 21.8724 5.76471 21.8905C3.52705 22.8695 2.08127 25.0796 2.08127 27.521C2.08011 28.5905 2.35865 29.6418 2.88927 30.5704C3.41989 31.499 4.18413 32.2727 5.10614 32.8147L5.10588 32.8149Z" fill="white"/>
</mask>
<g mask="url(#mask0_110_59496)">
<rect x="26.9995" y="-0.0424805" width="38" height="55" fill="#FE5602"/>
</g>
</svg>
