<svg width="41" height="55" viewBox="0 0 41 55" fill="none" xmlns="http://www.w3.org/2000/svg">
<path d="M0 8.83252V52.7075C0 53.945 1.0125 54.9575 2.25 54.9575H38.25C39.4875 54.9575 40.5 53.945 40.5 52.7075V8.83252H0Z" fill="#FE5602"/>
<path d="M38.25 4.33252H2.25C1.0125 4.33252 0 5.34502 0 6.58252V11.0825H40.5V6.58252C40.5 5.34502 39.4875 4.33252 38.25 4.33252Z" fill="#AD3A00"/>
<path d="M31.5 6.58252H9V3.20752C9 1.97002 10.0125 0.95752 11.25 0.95752H29.25C30.4875 0.95752 31.5 1.97002 31.5 3.20752V6.58252Z" fill="#FF8E55"/>
<path d="M20.2502 39.2075H29.2502H20.2502ZM20.2502 23.4575H29.2502H20.2502ZM20.2502 31.3325H29.2502H20.2502ZM11.1377 23.345L12.6002 24.8075L14.9627 22.445M11.1377 31.22L12.6002 32.6825L14.9627 30.32M11.1377 39.095L12.6002 40.5575L14.9627 38.195" fill="black"/>
<path d="M20.2502 39.2075H29.2502M20.2502 23.4575H29.2502M20.2502 31.3325H29.2502M11.1377 23.345L12.6002 24.8075L14.9627 22.445M11.1377 31.22L12.6002 32.6825L14.9627 30.32M11.1377 39.095L12.6002 40.5575L14.9627 38.195" stroke="white" stroke-width="2" stroke-miterlimit="10" stroke-linecap="square"/>
</svg>
