<svg width="55" height="55" viewBox="0 0 55 55" fill="none" xmlns="http://www.w3.org/2000/svg">
<path fill-rule="evenodd" clip-rule="evenodd" d="M34.7257 14.4624H38.5841V16.3917H34.7257V14.4624ZM25.0795 22.1792H28.9379V24.1085H25.0795V22.1792ZM30.8673 29.8962H34.7257V31.8255H30.8673V29.8962ZM9.64573 43.4008C9.39229 43.4001 9.14123 43.4497 8.9071 43.5468C8.67296 43.6438 8.46042 43.7863 8.28177 43.9661L0.564821 51.6831C-0.188274 52.4365 -0.188274 53.6576 0.564821 54.411C1.32804 55.14 2.52953 55.14 3.29276 54.411L11.0097 46.694C11.2795 46.4243 11.4632 46.0805 11.5376 45.7063C11.6121 45.3321 11.5739 44.9443 11.4279 44.5918C11.2819 44.2393 11.0346 43.938 10.7174 43.726C10.4002 43.514 10.0273 43.4009 9.64573 43.4008ZM11.5923 42.0272C11.8777 42.1841 12.1405 42.3788 12.3737 42.606C12.6001 42.8375 12.7962 43.0968 12.9572 43.3777L15.4816 40.8523C15.0117 40.4185 14.5592 39.966 14.1254 39.4961L11.5923 42.0272Z" fill="white"/>
<path d="M31.8317 0.95752C19.5786 0.95752 9.64551 10.8906 9.64551 23.1437C9.64551 35.3969 19.5786 45.3299 31.8317 45.3299C44.0848 45.3299 54.0179 35.3969 54.0179 23.1437C54.0041 10.8963 44.0791 0.971341 31.8317 0.95752ZM31.8317 43.4006C20.6441 43.4006 11.5748 34.3313 11.5748 23.1436C11.5748 11.956 20.6441 2.88668 31.8317 2.88668C43.0193 2.88668 52.0887 11.956 52.0887 23.1436C52.0759 34.326 43.0141 43.3878 31.8317 43.4006Z" fill="white"/>
<path d="M31.8316 4.81592C21.7094 4.81592 13.5039 13.0216 13.5039 23.1436C13.5039 33.2656 21.7095 41.4713 31.8316 41.4713C41.9536 41.4713 50.1593 33.2656 50.1593 23.1436C50.1482 13.0261 41.9491 4.8271 31.8316 4.81592ZM43.4071 31.8252H36.6547C36.6547 32.8907 35.791 33.7544 34.7255 33.7544H30.8671C29.8016 33.7544 28.9378 32.8907 28.9378 31.8252H20.2562C20.0004 31.8252 19.755 31.7235 19.5741 31.5426C19.3932 31.3617 19.2916 31.1164 19.2916 30.8605C19.2916 30.6047 19.3932 30.3594 19.5741 30.1784C19.755 29.9975 20.0004 29.8959 20.2562 29.8959H28.9378C28.9378 28.8304 29.8016 27.9667 30.8671 27.9667H34.7255C35.791 27.9667 36.6547 28.8304 36.6547 29.8959H43.4071C43.6629 29.8959 43.9083 29.9975 44.0892 30.1784C44.2701 30.3594 44.3717 30.6047 44.3717 30.8605C44.3717 31.1164 44.2701 31.3617 44.0892 31.5426C43.9083 31.7235 43.6629 31.8252 43.4071 31.8252ZM43.4071 24.1082H30.8671C30.8671 25.1737 30.0033 26.0375 28.9378 26.0375H25.0793C24.0138 26.0375 23.15 25.1737 23.15 24.1082H20.2561C20.0003 24.1082 19.7549 24.0066 19.574 23.8257C19.3931 23.6448 19.2915 23.3994 19.2915 23.1436C19.2915 22.8878 19.3931 22.6424 19.574 22.4615C19.7549 22.2806 20.0003 22.179 20.2561 22.179H23.15C23.15 21.1135 24.0138 20.2497 25.0793 20.2497H28.9377C30.0032 20.2497 30.867 21.1135 30.867 22.179H43.407C43.9396 22.179 44.3716 22.6108 44.3716 23.1436C44.3716 23.6764 43.9398 24.1082 43.4071 24.1082ZM43.4071 16.3913H40.5132C40.5132 17.4568 39.6494 18.3205 38.5839 18.3205H34.7255C33.66 18.3205 32.7962 17.4568 32.7962 16.3913H20.2562C20.0004 16.3913 19.755 16.2897 19.5741 16.1088C19.3932 15.9278 19.2916 15.6825 19.2916 15.4267C19.2916 15.1708 19.3932 14.9255 19.5741 14.7446C19.755 14.5637 20.0004 14.462 20.2562 14.462H32.7962C32.7962 13.3965 33.66 12.5328 34.7255 12.5328H38.5839C39.6494 12.5328 40.5132 13.3965 40.5132 14.462H43.4071C43.6629 14.462 43.9083 14.5637 44.0892 14.7446C44.2701 14.9255 44.3717 15.1708 44.3717 15.4267C44.3717 15.6825 44.2701 15.9278 44.0892 16.1088C43.9083 16.2897 43.6629 16.3913 43.4071 16.3913Z" fill="#FE5602"/>
</svg>
