<svg width="54" height="55" viewBox="0 0 54 55" fill="none" xmlns="http://www.w3.org/2000/svg">
<path d="M38.8125 24.5825C30.4248 24.5825 23.625 31.3823 23.625 39.77C23.625 48.1577 30.4248 54.9575 38.8125 54.9575C47.2002 54.9575 54 48.1577 54 39.77C54 31.3823 47.2002 24.5825 38.8125 24.5825ZM40.5 48.2075V49.0513C40.5 49.4988 40.3222 49.928 40.0057 50.2445C39.6893 50.561 39.2601 50.7388 38.8125 50.7388C38.3649 50.7388 37.9357 50.561 37.6193 50.2445C37.3028 49.928 37.125 49.4988 37.125 49.0513V48.2075H35.4375C34.9899 48.2075 34.5607 48.0297 34.2443 47.7133C33.9278 47.3968 33.75 46.9676 33.75 46.52C33.75 46.0725 33.9278 45.6432 34.2443 45.3268C34.5607 45.0103 34.9899 44.8325 35.4375 44.8325H40.5C41.4307 44.8325 42.1875 44.0757 42.1875 43.145C42.1875 42.2144 41.4307 41.4575 40.5 41.4575H37.125C34.333 41.4575 32.0625 39.187 32.0625 36.395C32.0625 33.6031 34.333 31.3325 37.125 31.3325V30.4888C37.125 30.0412 37.3028 29.612 37.6193 29.2955C37.9357 28.9791 38.3649 28.8013 38.8125 28.8013C39.2601 28.8013 39.6893 28.9791 40.0057 29.2955C40.3222 29.612 40.5 30.0412 40.5 30.4888V31.3325H42.1875C42.6351 31.3325 43.0643 31.5103 43.3807 31.8268C43.6972 32.1432 43.875 32.5725 43.875 33.02C43.875 33.4676 43.6972 33.8968 43.3807 34.2133C43.0643 34.5297 42.6351 34.7075 42.1875 34.7075H37.125C36.1943 34.7075 35.4375 35.4644 35.4375 36.395C35.4375 37.3257 36.1943 38.0825 37.125 38.0825H40.5C43.292 38.0825 45.5625 40.3531 45.5625 43.145C45.5625 45.937 43.292 48.2075 40.5 48.2075ZM10.125 9.39502H27V14.4575H10.125V9.39502Z" fill="white"/>
<path d="M20.25 39.77C20.25 30.104 27.6784 22.1432 37.125 21.2877V2.64502C37.125 2.19747 36.9472 1.76824 36.6307 1.45178C36.3143 1.13531 35.8851 0.95752 35.4375 0.95752H1.6875C1.23995 0.95752 0.810725 1.13531 0.494257 1.45178C0.17779 1.76824 0 2.19747 0 2.64502L0 53.27C0 53.7176 0.17779 54.1468 0.494257 54.4633C0.810725 54.7797 1.23995 54.9575 1.6875 54.9575H28.1593C23.3812 51.596 20.25 46.0441 20.25 39.77ZM6.75 7.70752C6.75 7.25997 6.92779 6.83074 7.24426 6.51428C7.56073 6.19781 7.98995 6.02002 8.4375 6.02002H28.6875C29.1351 6.02002 29.5643 6.19781 29.8807 6.51428C30.1972 6.83074 30.375 7.25997 30.375 7.70752V16.145C30.375 16.5926 30.1972 17.0218 29.8807 17.3383C29.5643 17.6547 29.1351 17.8325 28.6875 17.8325H8.4375C7.98995 17.8325 7.56073 17.6547 7.24426 17.3383C6.92779 17.0218 6.75 16.5926 6.75 16.145V7.70752ZM8.4375 46.52C8.21584 46.52 7.99636 46.4762 7.79159 46.3914C7.58683 46.3065 7.40078 46.1821 7.24408 46.0253C7.08738 45.8686 6.9631 45.6825 6.87832 45.4776C6.79355 45.2728 6.74994 45.0533 6.75 44.8317C6.75006 44.61 6.79377 44.3905 6.87865 44.1858C6.96352 43.981 7.0879 43.795 7.24468 43.6383C7.40146 43.4816 7.58756 43.3573 7.79237 43.2725C7.99718 43.1877 8.21668 43.1441 8.43834 43.1442C8.88601 43.1443 9.31529 43.3222 9.63176 43.6389C9.94823 43.9555 10.126 44.3849 10.1258 44.8325C10.1257 45.2802 9.94779 45.7095 9.63116 46.0259C9.31454 46.3424 8.88516 46.5201 8.4375 46.52ZM8.4375 39.77C7.98984 39.7699 7.56055 39.592 7.24408 39.2753C6.92761 38.9587 6.74989 38.5293 6.75 38.0817C6.75011 37.634 6.92805 37.2047 7.24468 36.8883C7.56131 36.5718 7.99068 36.3941 8.43834 36.3942C8.88601 36.3943 9.31529 36.5722 9.63176 36.8889C9.94823 37.2055 10.126 37.6349 10.1258 38.0825C10.1257 38.5302 9.94779 38.9595 9.63116 39.2759C9.31454 39.5924 8.88516 39.7701 8.4375 39.77ZM8.4375 33.02C7.98984 33.0199 7.56055 32.842 7.24408 32.5253C6.92761 32.2087 6.74989 31.7793 6.75 31.3317C6.75011 30.884 6.92805 30.4547 7.24468 30.1383C7.56131 29.8218 7.99068 29.6441 8.43834 29.6442C8.88601 29.6443 9.31529 29.8222 9.63176 30.1389C9.94823 30.4555 10.126 30.8849 10.1258 31.3325C10.1257 31.7802 9.94779 32.2095 9.63116 32.5259C9.31454 32.8424 8.88516 33.0201 8.4375 33.02ZM8.4375 26.27C8.21584 26.27 7.99636 26.2262 7.79159 26.1414C7.58683 26.0565 7.40078 25.9321 7.24408 25.7753C7.08738 25.6186 6.9631 25.4325 6.87832 25.2276C6.79355 25.0228 6.74994 24.8033 6.75 24.5817C6.75006 24.36 6.79377 24.1405 6.87865 23.9358C6.96352 23.731 7.0879 23.545 7.24468 23.3883C7.40146 23.2316 7.58756 23.1073 7.79237 23.0225C7.99718 22.9377 8.21668 22.8941 8.43834 22.8942C8.88601 22.8943 9.31529 23.0722 9.63176 23.3889C9.94823 23.7055 10.126 24.1349 10.1258 24.5825C10.1257 25.0302 9.94779 25.4595 9.63116 25.7759C9.31454 26.0924 8.88516 26.2701 8.4375 26.27ZM15.1875 46.52C14.9658 46.52 14.7464 46.4762 14.5416 46.3914C14.3368 46.3065 14.1508 46.1821 13.9941 46.0253C13.8374 45.8686 13.7131 45.6825 13.6283 45.4776C13.5435 45.2728 13.4999 45.0533 13.5 44.8317C13.5001 44.61 13.5438 44.3905 13.6286 44.1858C13.7135 43.981 13.8379 43.795 13.9947 43.6383C14.1515 43.4816 14.3376 43.3573 14.5424 43.2725C14.7472 43.1877 14.9667 43.1441 15.1883 43.1442C15.636 43.1443 16.0653 43.3222 16.3818 43.6389C16.6982 43.9555 16.876 44.3849 16.8758 44.8325C16.8757 45.2802 16.6978 45.7095 16.3812 46.0259C16.0645 46.3424 15.6352 46.5201 15.1875 46.52ZM15.1875 39.77C14.7398 39.7699 14.3105 39.592 13.9941 39.2753C13.6776 38.9587 13.4999 38.5293 13.5 38.0817C13.5001 37.634 13.6781 37.2047 13.9947 36.8883C14.3113 36.5718 14.7407 36.3941 15.1883 36.3942C15.41 36.3942 15.6295 36.4379 15.8343 36.5228C16.039 36.6077 16.2251 36.7321 16.3818 36.8889C16.5385 37.0456 16.6627 37.2317 16.7475 37.4366C16.8323 37.6414 16.8759 37.8609 16.8758 38.0825C16.8758 38.3042 16.8321 38.5237 16.7472 38.7284C16.6623 38.9332 16.5379 39.1192 16.3812 39.2759C16.2244 39.4326 16.0383 39.5569 15.8335 39.6417C15.6287 39.7265 15.4092 39.7701 15.1875 39.77ZM15.1875 33.02C14.7398 33.0199 14.3105 32.842 13.9941 32.5253C13.6776 32.2087 13.4999 31.7793 13.5 31.3317C13.5001 30.884 13.6781 30.4547 13.9947 30.1383C14.3113 29.8218 14.7407 29.6441 15.1883 29.6442C15.41 29.6442 15.6295 29.6879 15.8343 29.7728C16.039 29.8577 16.2251 29.9821 16.3818 30.1389C16.5385 30.2956 16.6627 30.4817 16.7475 30.6866C16.8323 30.8914 16.8759 31.1109 16.8758 31.3325C16.8758 31.5542 16.8321 31.7737 16.7472 31.9784C16.6623 32.1832 16.5379 32.3692 16.3812 32.5259C16.2244 32.6826 16.0383 32.8069 15.8335 32.8917C15.6287 32.9765 15.4092 33.0201 15.1875 33.02ZM18.5625 26.27H15.1875C14.7399 26.27 14.3107 26.0922 13.9943 25.7758C13.6778 25.4593 13.5 25.0301 13.5 24.5825C13.5 24.135 13.6778 23.7057 13.9943 23.3893C14.3107 23.0728 14.7399 22.895 15.1875 22.895H18.5625C19.0101 22.895 19.4393 23.0728 19.7557 23.3893C20.0722 23.7057 20.25 24.135 20.25 24.5825C20.25 25.0301 20.0722 25.4593 19.7557 25.7758C19.4393 26.0922 19.0101 26.27 18.5625 26.27Z" fill="#FE5602"/>
</svg>
