<svg width="46" height="55" viewBox="0 0 46 55" fill="none" xmlns="http://www.w3.org/2000/svg">
<path d="M22.9921 17.6694C17.3187 17.6694 12.7031 22.285 12.7031 27.9579C12.7031 33.6315 17.3187 38.2469 22.9921 38.2469C28.6653 38.2469 33.2806 33.6315 33.2806 27.958C33.2806 22.2849 28.6653 17.6694 22.9921 17.6694ZM29.1007 26.0205L21.7298 33.3912C21.5828 33.5386 21.4081 33.6555 21.2158 33.7352C21.0235 33.8149 20.8173 33.8558 20.6092 33.8556C20.4011 33.8559 20.195 33.815 20.0027 33.7353C19.8105 33.6556 19.6359 33.5387 19.4891 33.3912L16.6722 30.5745C16.0534 29.9561 16.0534 28.9529 16.6722 28.3341C17.2906 27.7153 18.2938 27.7153 18.9126 28.3341L20.6092 30.0307L26.8603 23.7801C27.4787 23.1612 28.4819 23.1612 29.1007 23.7801C29.7195 24.3984 29.7195 25.4017 29.1007 26.0205Z" fill="#FE5602"/>
<path d="M45.9303 15.6091L45.9287 15.5671C45.9042 15.008 45.8879 14.4486 45.8801 13.8891C45.836 10.9116 43.4691 8.44872 40.4913 8.28239C34.2826 7.93582 29.4797 5.91135 25.3759 1.91135L25.3409 1.87802C24.0023 0.650685 21.9832 0.650685 20.6442 1.87802L20.6092 1.91135C16.5054 5.91135 11.7025 7.93582 5.49384 8.28271C2.51646 8.44872 0.149111 10.9117 0.105025 13.8894C0.0972875 14.4489 0.0811138 15.0082 0.0565099 15.5671L0.0539787 15.6647C-0.0667829 21.9957 -0.216759 29.875 2.41911 37.0266C3.86857 40.9595 6.06358 44.3781 8.94298 47.1883C12.2224 50.3886 16.5177 52.9294 21.7096 54.7396C21.8805 54.7991 22.0553 54.8467 22.2328 54.8821C22.4849 54.9324 22.7388 54.9575 22.9926 54.9575C23.2463 54.9575 23.5005 54.9324 23.7522 54.8821C23.9304 54.8464 24.1059 54.7985 24.2775 54.7387C29.4632 52.9251 33.754 50.3832 37.0305 47.1833C39.9088 44.3724 42.1038 40.9529 43.5544 37.0192C46.2002 29.8461 46.0506 21.952 45.9303 15.6091ZM22.9917 41.4159C15.5709 41.4159 9.53413 35.3791 9.53413 27.9584C9.53413 20.5376 15.571 14.5008 22.9917 14.5008C30.4121 14.5008 36.4493 20.5376 36.4493 27.9584C36.4493 35.3792 30.4121 41.4159 22.9917 41.4159Z" fill="white"/>
</svg>
