<svg width="70" height="55" viewBox="0 0 70 55" fill="none" xmlns="http://www.w3.org/2000/svg">
<path d="M35.7241 1.60029L37.2744 6.37194H42.2915C42.4878 6.37195 42.6792 6.43412 42.8381 6.54954C42.9969 6.66497 43.1152 6.82772 43.1759 7.01449C43.2366 7.20125 43.2366 7.40243 43.1759 7.58921C43.1153 7.77598 42.9971 7.93876 42.8382 8.05422L38.7792 11.0035L40.3295 15.7751C40.3903 15.9619 40.3903 16.1631 40.3296 16.3499C40.2689 16.5367 40.1507 16.6995 39.9918 16.8149C39.8329 16.9303 39.6415 16.9925 39.4451 16.9925C39.2487 16.9924 39.0573 16.9302 38.8985 16.8147L34.8396 13.8654L30.7807 16.8147C30.6218 16.9302 30.4305 16.9924 30.2341 16.9925C30.0377 16.9925 29.8463 16.9303 29.6874 16.8149C29.5285 16.6995 29.4102 16.5367 29.3496 16.3499C29.2889 16.1631 29.2889 15.9619 29.3496 15.7751L30.9 11.0032L26.841 8.05392C26.6821 7.93846 26.5639 7.77568 26.5032 7.58891C26.4426 7.40213 26.4426 7.20095 26.5033 7.01419C26.564 6.82743 26.6822 6.66467 26.8411 6.54924C27 6.43382 27.1913 6.37165 27.3877 6.37164H32.4047L33.9551 1.59999C34.0158 1.41322 34.1341 1.25046 34.293 1.13504C34.4519 1.01963 34.6433 0.957486 34.8397 0.95752C35.0361 0.957553 35.2274 1.01976 35.3863 1.13523C35.5452 1.2507 35.6634 1.4135 35.7241 1.60029ZM17.0306 10.3193L18.2582 14.0993H22.2327C22.3882 14.0994 22.5396 14.1486 22.6654 14.2401C22.7912 14.3315 22.8848 14.4604 22.9329 14.6083C22.981 14.7561 22.981 14.9154 22.933 15.0634C22.8851 15.2113 22.7915 15.3402 22.6658 15.4317L19.4503 17.7671L20.6779 21.5471C20.7259 21.6951 20.7259 21.8544 20.6778 22.0023C20.6297 22.1503 20.536 22.2792 20.4101 22.3706C20.2842 22.462 20.1327 22.5112 19.9771 22.5112C19.8216 22.5112 19.67 22.4619 19.5442 22.3705L16.3288 20.0343L13.1133 22.3705C12.9875 22.4619 12.8359 22.5111 12.6804 22.511C12.5249 22.511 12.3734 22.4618 12.2476 22.3704C12.1218 22.279 12.0281 22.1501 11.98 22.0023C11.9319 21.8544 11.9318 21.6951 11.9797 21.5471L13.2073 17.7671L9.99191 15.4317C9.86618 15.3402 9.77263 15.2113 9.72464 15.0634C9.67665 14.9155 9.67668 14.7562 9.72473 14.6083C9.77278 14.4605 9.86639 14.3316 9.99215 14.2401C10.1179 14.1487 10.2694 14.0994 10.4249 14.0993H14.3993L15.6269 10.3193C15.6744 10.1705 15.768 10.0406 15.8942 9.94842C16.0203 9.85626 16.1725 9.8066 16.3288 9.8066C16.485 9.8066 16.6372 9.85626 16.7633 9.94842C16.8895 10.0406 16.9831 10.1705 17.0306 10.3193ZM7.34087 25.889L8.56848 29.6689H12.5435C12.699 29.6691 12.8505 29.7184 12.9762 29.8098C13.102 29.9012 13.1956 30.0301 13.2437 30.178C13.2917 30.3259 13.2918 30.4852 13.2438 30.633C13.1958 30.7809 13.1022 30.9099 12.9765 31.0014L9.76106 33.3368L10.9887 37.1168C11.0366 37.2647 11.0365 37.424 10.9884 37.5719C10.9403 37.7198 10.8466 37.8487 10.7208 37.9401C10.595 38.0314 10.4435 38.0807 10.288 38.0807C10.1325 38.0807 9.98092 38.0315 9.85507 37.9402L6.64024 35.6052L3.4248 37.9414C3.29896 38.0328 3.14741 38.082 2.99186 38.082C2.83631 38.0821 2.68476 38.0328 2.5589 37.9414C2.43304 37.85 2.33935 37.7211 2.29124 37.5732C2.24312 37.4253 2.24306 37.2659 2.29106 37.118L3.51867 33.338L0.303237 31.0025C0.177504 30.9111 0.0839454 30.7821 0.0359579 30.6342C-0.0120296 30.4863 -0.0119848 30.327 0.0360855 30.1791C0.0841559 30.0312 0.177787 29.9024 0.303571 29.8109C0.429356 29.7195 0.580844 29.6702 0.736343 29.6701H4.7114L5.939 25.8902C5.98682 25.742 6.08037 25.6127 6.20623 25.521C6.33209 25.4293 6.48377 25.3798 6.6395 25.3797C6.79524 25.3795 6.94701 25.4287 7.07302 25.5202C7.19903 25.6117 7.2928 25.7408 7.34087 25.889ZM63.6312 25.889L64.8588 29.6689H68.8338C68.9893 29.6691 69.1408 29.7184 69.2666 29.8098C69.3923 29.9012 69.4859 30.0301 69.534 30.178C69.582 30.3259 69.5821 30.4852 69.5341 30.633C69.4861 30.7809 69.3925 30.9099 69.2668 31.0014L66.0514 33.3368L67.279 37.1168C67.3269 37.2647 67.3269 37.424 67.2787 37.5719C67.2306 37.7198 67.137 37.8487 67.0111 37.9401C66.8853 38.0314 66.7338 38.0807 66.5783 38.0807C66.4228 38.0807 66.2712 38.0315 66.1454 37.9402L62.93 35.604L59.7151 37.9414C59.5893 38.0328 59.4377 38.082 59.2822 38.082C59.1266 38.0821 58.9751 38.0328 58.8492 37.9414C58.7234 37.85 58.6297 37.7211 58.5815 37.5732C58.5334 37.4253 58.5334 37.2659 58.5814 37.118L59.809 33.338L56.5935 31.0025C56.4678 30.9111 56.3743 30.7821 56.3263 30.6342C56.2783 30.4863 56.2783 30.327 56.3264 30.1791C56.3745 30.0312 56.4681 29.9024 56.5939 29.8109C56.7197 29.7195 56.8712 29.6702 57.0267 29.6701H61.0011L62.2287 25.8902C62.2764 25.7417 62.3699 25.6122 62.4958 25.5203C62.6218 25.4284 62.7736 25.3789 62.9295 25.3787C63.0854 25.3786 63.2373 25.4279 63.3634 25.5196C63.4895 25.6113 63.5833 25.7406 63.6312 25.889ZM54.0499 10.3193L55.2775 14.0993H59.2525C59.408 14.0994 59.5595 14.1487 59.6852 14.2401C59.811 14.3316 59.9046 14.4605 59.9526 14.6083C60.0007 14.7562 60.0007 14.9155 59.9527 15.0634C59.9047 15.2113 59.8112 15.3402 59.6855 15.4317L56.47 17.7671L57.6976 21.5471C57.7456 21.6951 57.7455 21.8544 57.6974 22.0023C57.6493 22.1501 57.5556 22.279 57.4298 22.3704C57.304 22.4618 57.1525 22.511 56.9969 22.511C56.8414 22.5111 56.6899 22.4619 56.5641 22.3705L53.3486 20.0343L50.1338 22.3717C50.0079 22.4631 49.8564 22.5124 49.7008 22.5124C49.5453 22.5124 49.3937 22.4632 49.2679 22.3718C49.142 22.2804 49.0483 22.1515 49.0002 22.0035C48.9521 21.8556 48.952 21.6963 49 21.5483L50.2276 17.7683L47.0122 15.4329C46.8865 15.3414 46.7929 15.2125 46.7449 15.0645C46.6969 14.9166 46.697 14.7573 46.7451 14.6095C46.7931 14.4616 46.8868 14.3327 47.0126 14.2413C47.1383 14.1498 47.2898 14.1006 47.4453 14.1005H51.4198L52.6474 10.3205C52.6951 10.1721 52.7886 10.0426 52.9145 9.95068C53.0404 9.85878 53.1923 9.80919 53.3482 9.80906C53.5041 9.80893 53.656 9.85825 53.7821 9.94994C53.9082 10.0416 54.0019 10.171 54.0499 10.3193Z" fill="#FE5602"/>
<path d="M18.0723 35.7944H27.6536V52.5618H18.0723V35.7944Z" fill="#FE5602"/>
<path d="M49.2113 35.7949H39.63V28.6089C39.63 27.6559 39.2514 26.7421 38.5776 26.0682C37.9038 25.3944 36.9899 25.0159 36.037 25.0159H33.6417L33.2015 28.0973C32.9678 29.7333 32.3409 31.2882 31.3746 32.6288C30.4084 33.9695 29.1314 35.0558 27.6533 35.7949V52.5622L28.739 53.286C30.3739 54.376 32.2948 54.9576 34.2596 54.9575H48.0136C48.6489 54.9575 49.2582 54.7052 49.7074 54.2559C50.1566 53.8067 50.409 53.1975 50.409 52.5622C50.409 51.9269 50.1566 51.3176 49.7074 50.8684C49.2582 50.4192 48.6489 50.1669 48.0136 50.1669C48.6489 50.1669 49.2582 49.9145 49.7074 49.4653C50.1566 49.0161 50.409 48.4068 50.409 47.7715C50.409 47.1362 50.1566 46.527 49.7074 46.0778C49.2582 45.6286 48.6489 45.3762 48.0136 45.3762C48.6489 45.3762 49.2582 45.1238 49.7074 44.6746C50.1566 44.2254 50.409 43.6161 50.409 42.9809C50.409 42.3456 50.1566 41.7363 49.7074 41.2871C49.2582 40.8379 48.6489 40.5855 48.0136 40.5855H49.2113C49.8466 40.5855 50.4559 40.3332 50.9051 39.884C51.3543 39.4347 51.6066 38.8255 51.6066 38.1902C51.6066 37.5549 51.3543 36.9457 50.9051 36.4964C50.4559 36.0472 49.8466 35.7949 49.2113 35.7949Z" fill="white"/>
</svg>
