<svg width="54" height="55" viewBox="0 0 54 55" fill="none" xmlns="http://www.w3.org/2000/svg">
<path d="M10.3147 29.3936C10.334 29.571 10.4015 29.7398 10.5098 29.8817C10.6181 30.0236 10.763 30.1332 10.929 30.1988L13.6286 31.2758C13.959 32.6108 14.4887 33.8884 15.1999 35.0654L14.0605 37.738C13.9866 37.9014 13.9601 38.0823 13.984 38.26C14.0079 38.4377 14.0811 38.6052 14.1955 38.7433C14.8117 39.4753 15.4894 40.1533 16.2211 40.7698C16.3592 40.8842 16.5266 40.9575 16.7043 40.9815C16.882 41.0055 17.0629 40.9793 17.2264 40.9058L19.8981 39.7645C21.0748 40.4756 22.3521 41.0054 23.6867 41.3358L24.7628 44.0354C24.8284 44.2016 24.9381 44.3467 25.0802 44.455C25.2223 44.5633 25.3913 44.6306 25.569 44.6498C26.5239 44.7377 27.4849 44.7377 28.4398 44.6498C28.6174 44.6306 28.7864 44.5633 28.9285 44.455C29.0706 44.3467 29.1804 44.2016 29.2459 44.0354L30.322 41.3358C31.6567 41.0054 32.9339 40.4756 34.1107 39.7645L36.774 40.9058C36.9375 40.9793 37.1184 41.0055 37.2961 40.9815C37.4737 40.9575 37.6412 40.8842 37.7793 40.7698C38.5112 40.1535 39.1889 39.4755 39.8049 38.7433C39.9193 38.6052 39.9925 38.4377 40.0164 38.26C40.0403 38.0823 40.0137 37.9014 39.9399 37.738L38.8033 35.0654C39.5145 33.8884 40.0442 32.6108 40.3746 31.2758L43.0741 30.1988C43.2402 30.1332 43.3851 30.0236 43.4934 29.8817C43.6017 29.7398 43.6691 29.571 43.6885 29.3936C43.7825 28.4383 43.7825 27.4761 43.6885 26.5209C43.6691 26.3435 43.6017 26.1747 43.4934 26.0328C43.3851 25.8909 43.2402 25.7812 43.0741 25.7157L40.3746 24.6386C40.0442 23.3037 39.5145 22.0261 38.8033 20.849L39.9436 18.1765C40.0175 18.0131 40.044 17.8322 40.0201 17.6545C39.9962 17.4767 39.923 17.3093 39.8086 17.1711C39.1926 16.4389 38.5149 15.7609 37.783 15.1446C37.6449 15.0303 37.4775 14.957 37.2998 14.933C37.1221 14.9089 36.9412 14.9352 36.7777 15.0087L34.1061 16.15C32.9293 15.4388 31.652 14.9091 30.3174 14.5786L29.2413 11.8791C29.1757 11.7129 29.066 11.5678 28.9239 11.4595C28.7818 11.3512 28.6128 11.2838 28.4351 11.2647C27.4802 11.1767 26.5192 11.1767 25.5643 11.2647C25.3867 11.2838 25.2177 11.3512 25.0756 11.4595C24.9335 11.5678 24.8237 11.7129 24.7582 11.8791L23.6821 14.5786C22.3474 14.9091 21.0702 15.4388 19.8934 16.15L17.2255 15.0087C17.062 14.9352 16.8811 14.9089 16.7034 14.933C16.5257 14.957 16.3583 15.0303 16.2202 15.1446C15.4882 15.7609 14.8106 16.4389 14.1946 17.1711C14.0802 17.3093 14.0069 17.4767 13.9831 17.6545C13.9592 17.8322 13.9857 18.0131 14.0596 18.1765L15.1999 20.849C14.4887 22.0261 13.959 23.3037 13.6286 24.6386L10.929 25.7157C10.763 25.7812 10.6181 25.8909 10.5098 26.0328C10.4015 26.1747 10.334 26.3435 10.3147 26.5209C10.2206 27.4761 10.2206 28.4383 10.3147 29.3936Z" fill="#FE5602"/>
<path d="M21.0703 3.45495L20.0054 7.06211C19.9464 7.25613 19.8306 7.428 19.6728 7.5555C19.5151 7.683 19.3228 7.76026 19.1207 7.7773C18.9186 7.79434 18.7161 7.75038 18.5392 7.65109C18.3624 7.5518 18.2194 7.40176 18.1287 7.22036L17.7843 6.5585C13.87 8.24336 10.4915 10.9675 8.01508 14.4355C5.5386 17.9036 4.05861 21.9834 3.7355 26.2326C3.70097 26.7012 3.49056 27.1394 3.14648 27.4593C2.8024 27.7792 2.35008 27.9572 1.88026 27.9575C1.62262 27.9583 1.36759 27.9059 1.13108 27.8037C0.894582 27.7015 0.681682 27.5517 0.505674 27.3635C0.329666 27.1754 0.194328 26.953 0.108105 26.7102C0.0218816 26.4674 -0.0133748 26.2095 0.00453579 25.9524C0.37015 21.0751 2.05248 16.3884 4.87217 12.392C7.69187 8.39555 11.5432 5.23922 16.0157 3.25946L15.6051 2.4766C15.5055 2.29967 15.4613 2.09686 15.4783 1.8945C15.4954 1.69214 15.5728 1.49958 15.7007 1.34182C15.8286 1.18405 16.0009 1.06836 16.1953 1.00977C16.3898 0.95118 16.5973 0.952394 16.7911 1.01325L20.3768 2.15917C20.6381 2.2427 20.8567 2.42467 20.9861 2.66655C21.1156 2.90842 21.1458 3.19119 21.0703 3.45495ZM2.49743 33.8872L6.10459 34.9522C6.29861 35.0112 6.47048 35.127 6.59798 35.2847C6.72548 35.4424 6.80274 35.6348 6.81978 35.8369C6.83682 36.0389 6.79286 36.2415 6.69357 36.4183C6.59429 36.5952 6.44424 36.7382 6.26284 36.8288L5.60098 37.1751C7.28611 41.0891 10.0103 44.4672 13.4784 46.9433C16.9464 49.4194 21.0261 50.8991 25.2751 51.2221C25.7437 51.2566 26.1818 51.467 26.5017 51.8111C26.8217 52.1552 26.9997 52.6075 27 53.0773C27.0008 53.335 26.9484 53.59 26.8462 53.8265C26.744 54.063 26.5942 54.2759 26.406 54.4519C26.2179 54.6279 25.9955 54.7632 25.7527 54.8495C25.5099 54.9357 25.2519 54.9709 24.9949 54.953C20.1176 54.5874 15.4309 52.9051 11.4345 50.0854C7.43803 47.2657 4.2817 43.4143 2.30194 38.9419L1.51908 39.3524C1.34215 39.4521 1.13934 39.4963 0.936982 39.4792C0.734625 39.4622 0.542064 39.3847 0.384296 39.2569C0.226529 39.129 0.110841 38.9567 0.0522509 38.7622C-0.00633922 38.5678 -0.00512565 38.3602 0.0557341 38.1665L1.20165 34.5807C1.28518 34.3194 1.46715 34.1009 1.70903 33.9715C1.9509 33.842 2.23367 33.8118 2.49743 33.8872ZM32.9297 52.4601L33.9947 48.853C34.0537 48.659 34.1695 48.4871 34.3272 48.3596C34.4849 48.2321 34.6773 48.1548 34.8793 48.1378C35.0814 48.1208 35.284 48.1647 35.4608 48.264C35.6376 48.3633 35.7806 48.5133 35.8713 48.6947L36.2176 49.3566C40.1315 47.6715 43.5096 44.9473 45.9858 41.4792C48.4619 38.0111 49.9416 33.9315 50.2646 29.6825C50.2991 29.2139 50.5095 28.7757 50.8536 28.4558C51.1977 28.1359 51.65 27.9579 52.1198 27.9575C52.3774 27.9568 52.6325 28.0092 52.869 28.1114C53.1055 28.2136 53.3184 28.3634 53.4944 28.5516C53.6704 28.7397 53.8057 28.9621 53.8919 29.2049C53.9782 29.4477 54.0134 29.7056 53.9955 29.9627C53.6299 34.84 51.9476 39.5267 49.1279 43.5231C46.3082 47.5195 42.4568 50.6759 37.9844 52.6556L38.3949 53.4385C38.4946 53.6154 38.5388 53.8182 38.5217 54.0206C38.5047 54.2229 38.4272 54.4155 38.2993 54.5733C38.1715 54.731 37.9991 54.8467 37.8047 54.9053C37.6103 54.9639 37.4027 54.9627 37.209 54.9018L33.6232 53.7559C33.3619 53.6724 33.1434 53.4904 33.0139 53.2485C32.8845 53.0067 32.8543 52.7239 32.9297 52.4601ZM51.5026 22.0278L47.8955 20.9629C47.7014 20.9039 47.5296 20.7881 47.4021 20.6304C47.2746 20.4726 47.1973 20.2803 47.1803 20.0782C47.1632 19.8761 47.2072 19.6736 47.3065 19.4968C47.4058 19.3199 47.5558 19.1769 47.7372 19.0863L48.3991 18.74C46.7139 14.826 43.9897 11.4479 40.5217 8.97181C37.0536 6.49568 32.974 5.01596 28.7249 4.69302C28.2564 4.65849 27.8182 4.44808 27.4983 4.104C27.1784 3.75991 27.0004 3.3076 27 2.83778C26.9993 2.58014 27.0516 2.32511 27.1538 2.0886C27.256 1.8521 27.4059 1.6392 27.594 1.46319C27.7822 1.28719 28.0046 1.15185 28.2474 1.06562C28.4902 0.979401 28.7481 0.944145 29.0051 0.962055C33.8825 1.32767 38.5692 3.01 42.5656 5.82969C46.562 8.64939 49.7184 12.5007 51.6981 16.9732L52.481 16.5627C52.6579 16.463 52.8607 16.4188 53.0631 16.4358C53.2654 16.4529 53.458 16.5304 53.6158 16.6582C53.7735 16.7861 53.8892 16.9584 53.9478 17.1529C54.0064 17.3473 54.0052 17.5549 53.9443 17.7486L52.7984 21.3343C52.7149 21.5957 52.5329 21.8142 52.291 21.9436C52.0492 22.0731 51.7664 22.1033 51.5026 22.0278Z" fill="white"/>
<path d="M24.207 33.5424C24.0847 33.5427 23.9636 33.5188 23.8506 33.472C23.7376 33.4252 23.6351 33.3564 23.5488 33.2697L21.6871 31.4079C21.5175 31.2323 21.4237 30.9972 21.4258 30.7531C21.4279 30.509 21.5258 30.2756 21.6984 30.103C21.871 29.9304 22.1045 29.8325 22.3486 29.8304C22.5926 29.8282 22.8278 29.9221 23.0034 30.0916L24.1297 31.218L30.9251 22.7209C31.0015 22.6255 31.096 22.546 31.2031 22.487C31.3102 22.428 31.4279 22.3907 31.5495 22.3773C31.671 22.3638 31.794 22.3744 31.9114 22.4084C32.0289 22.4425 32.1385 22.4993 32.234 22.5757C32.3294 22.6521 32.4089 22.7466 32.4679 22.8537C32.5268 22.9608 32.5641 23.0785 32.5776 23.2C32.5911 23.3216 32.5805 23.4446 32.5465 23.562C32.5124 23.6795 32.4556 23.7891 32.3792 23.8845L24.9321 33.1933C24.8503 33.2954 24.748 33.379 24.6317 33.4388C24.5154 33.4987 24.3878 33.5333 24.2572 33.5405L24.207 33.5424Z" fill="white"/>
</svg>
