<svg width="54" height="55" viewBox="0 0 54 55" fill="none" xmlns="http://www.w3.org/2000/svg">
<path d="M38.7 0.95752H4.5C2.016 0.95752 0 2.97352 0 5.45752V50.4575C0 52.9415 2.016 54.9575 4.5 54.9575H29.772C29.1367 53.864 28.8014 52.6222 28.8 51.3575V33.3575C28.8 29.3795 32.022 26.1575 36 26.1575H43.2V5.45752C43.2 2.97352 41.184 0.95752 38.7 0.95752ZM13.8726 43.6301L10.2726 47.2301C10.1058 47.3979 9.90754 47.531 9.68914 47.6218C9.47074 47.7126 9.23653 47.7594 9 47.7594C8.76347 47.7594 8.52926 47.7126 8.31086 47.6218C8.09246 47.531 7.89418 47.3979 7.7274 47.2301L5.9274 45.4301C5.75548 45.2641 5.61835 45.0655 5.52402 44.8458C5.42968 44.6262 5.38003 44.39 5.37795 44.151C5.37587 43.912 5.42141 43.675 5.51192 43.4538C5.60243 43.2326 5.73608 43.0316 5.90509 42.8626C6.0741 42.6936 6.27507 42.5599 6.49628 42.4694C6.7175 42.3789 6.95452 42.3334 7.19352 42.3355C7.43252 42.3375 7.66872 42.3872 7.88833 42.4815C8.10793 42.5759 8.30655 42.713 8.4726 42.8849L9 43.4123L11.3274 41.0849C11.4934 40.913 11.6921 40.7759 11.9117 40.6815C12.1313 40.5872 12.3675 40.5375 12.6065 40.5355C12.8455 40.5334 13.0825 40.5789 13.3037 40.6694C13.5249 40.7599 13.7259 40.8936 13.8949 41.0626C14.0639 41.2316 14.1976 41.4326 14.2881 41.6538C14.3786 41.875 14.4241 42.112 14.4221 42.351C14.42 42.59 14.3703 42.8262 14.276 43.0458C14.1816 43.2655 14.0445 43.4641 13.8726 43.6301ZM13.8726 34.6301L10.2726 38.2301C10.1058 38.3979 9.90754 38.531 9.68914 38.6218C9.47074 38.7126 9.23653 38.7594 9 38.7594C8.76347 38.7594 8.52926 38.7126 8.31086 38.6218C8.09246 38.531 7.89418 38.3979 7.7274 38.2301L5.9274 36.4301C5.75548 36.2641 5.61835 36.0655 5.52402 35.8458C5.42968 35.6262 5.38003 35.39 5.37795 35.151C5.37587 34.912 5.42141 34.675 5.51192 34.4538C5.60243 34.2326 5.73608 34.0316 5.90509 33.8626C6.0741 33.6936 6.27507 33.5599 6.49628 33.4694C6.7175 33.3789 6.95452 33.3334 7.19352 33.3355C7.43252 33.3375 7.66872 33.3872 7.88833 33.4815C8.10793 33.5759 8.30655 33.713 8.4726 33.8849L9 34.4123L11.3274 32.0849C11.4934 31.913 11.6921 31.7759 11.9117 31.6815C12.1313 31.5872 12.3675 31.5375 12.6065 31.5355C12.8455 31.5334 13.0825 31.5789 13.3037 31.6694C13.5249 31.7599 13.7259 31.8936 13.8949 32.0626C14.0639 32.2316 14.1976 32.4326 14.2881 32.6538C14.3786 32.875 14.4241 33.112 14.4221 33.351C14.42 33.59 14.3703 33.8262 14.276 34.0458C14.1816 34.2655 14.0445 34.4641 13.8726 34.6301ZM21.6 45.9575H18C17.5226 45.9575 17.0648 45.7679 16.7272 45.4303C16.3896 45.0927 16.2 44.6349 16.2 44.1575C16.2 43.6801 16.3896 43.2223 16.7272 42.8847C17.0648 42.5472 17.5226 42.3575 18 42.3575H21.6C22.0774 42.3575 22.5352 42.5472 22.8728 42.8847C23.2104 43.2223 23.4 43.6801 23.4 44.1575C23.4 44.6349 23.2104 45.0927 22.8728 45.4303C22.5352 45.7679 22.0774 45.9575 21.6 45.9575ZM21.6 36.9575H18C17.5226 36.9575 17.0648 36.7679 16.7272 36.4303C16.3896 36.0927 16.2 35.6349 16.2 35.1575C16.2 34.6801 16.3896 34.2223 16.7272 33.8847C17.0648 33.5472 17.5226 33.3575 18 33.3575H21.6C22.0774 33.3575 22.5352 33.5472 22.8728 33.8847C23.2104 34.2223 23.4 34.6801 23.4 35.1575C23.4 35.6349 23.2104 36.0927 22.8728 36.4303C22.5352 36.7679 22.0774 36.9575 21.6 36.9575ZM21.6 15.3575C24.5772 15.3575 27 17.7803 27 20.7575C26.9963 21.8704 26.6483 22.9549 26.0038 23.8621C25.3592 24.7693 24.4497 25.4548 23.4 25.8245V26.1575C23.4 26.6349 23.2104 27.0927 22.8728 27.4303C22.5352 27.7679 22.0774 27.9575 21.6 27.9575C21.1226 27.9575 20.6648 27.7679 20.3272 27.4303C19.9896 27.0927 19.8 26.6349 19.8 26.1575V25.8245C18.7503 25.4548 17.8408 24.7693 17.1962 23.8621C16.5517 22.9549 16.2037 21.8704 16.2 20.7575C16.2 20.2801 16.3896 19.8223 16.7272 19.4847C17.0648 19.1472 17.5226 18.9575 18 18.9575C18.4774 18.9575 18.9352 19.1472 19.2728 19.4847C19.6104 19.8223 19.8 20.2801 19.8 20.7575C19.7996 21.114 19.9051 21.4626 20.1029 21.7592C20.3008 22.0558 20.5821 22.287 20.9114 22.4236C21.2408 22.5602 21.6032 22.5961 21.9529 22.5266C22.3026 22.4571 22.6238 22.2855 22.8759 22.0334C23.128 21.7813 23.2996 21.4601 23.3691 21.1104C23.4385 20.7607 23.4027 20.3983 23.2661 20.069C23.1295 19.7397 22.8983 19.4583 22.6017 19.2604C22.3051 19.0626 21.9565 18.9572 21.6 18.9575C18.6228 18.9575 16.2 16.5347 16.2 13.5575C16.2 11.2139 17.7084 9.23572 19.8 8.49052V8.15752C19.8 7.68013 19.9896 7.22229 20.3272 6.88473C20.6648 6.54716 21.1226 6.35752 21.6 6.35752C22.0774 6.35752 22.5352 6.54716 22.8728 6.88473C23.2104 7.22229 23.4 7.68013 23.4 8.15752V8.49052C25.4916 9.23572 27 11.2139 27 13.5575C27 14.0349 26.8104 14.4927 26.4728 14.8303C26.1352 15.1679 25.6774 15.3575 25.2 15.3575C24.7226 15.3575 24.2648 15.1679 23.9272 14.8303C23.5896 14.4927 23.4 14.0349 23.4 13.5575C23.3793 13.0941 23.1806 12.6564 22.8453 12.3358C22.51 12.0152 22.0639 11.8362 21.6 11.8362C21.1361 11.8362 20.69 12.0152 20.3547 12.3358C20.0194 12.6564 19.8207 13.0941 19.8 13.5575C19.8 14.5511 20.6082 15.3575 21.6 15.3575Z" fill="#FE5602"/>
<path d="M36.0004 30.2573H50.4004C52.1042 30.2573 53.5004 31.6535 53.5004 33.3573V51.3573C53.5004 53.0612 52.1042 54.4573 50.4004 54.4573H36.0004C34.2965 54.4573 32.9004 53.0612 32.9004 51.3573V33.3573C32.9004 31.6535 34.2965 30.2573 36.0004 30.2573Z" fill="white" stroke="black"/>
</svg>
