<svg width="54" height="55" viewBox="0 0 54 55" fill="none" xmlns="http://www.w3.org/2000/svg">
<path d="M27 0.95752C16.2411 0.95752 7.48828 9.71048 7.48828 20.4692C7.48828 25.0265 9.05808 29.3567 11.8846 32.8091H42.1155C44.9419 29.3567 46.5117 25.0265 46.5117 20.4692C46.5117 9.71048 37.7589 0.95752 27 0.95752ZM29.5272 26.7974C29.5272 27.6711 28.8189 28.3794 27.9452 28.3794C27.0715 28.3794 26.3632 27.6711 26.3632 26.7974V13.6138H24.7891C23.9154 13.6138 23.207 12.9054 23.207 12.0317C23.207 11.158 23.9154 10.4497 24.7891 10.4497H27.9452C28.8189 10.4497 29.5272 11.158 29.5272 12.0317V26.7974ZM40.3425 42.5648H39.4226C39.4236 42.9212 39.4243 43.258 39.4243 43.4394C39.4243 43.65 39.4255 43.9779 39.4271 44.3166C39.7788 44.315 40.1221 44.3138 40.3425 44.3138C40.8744 44.3138 41.341 43.9052 41.341 43.4394C41.341 42.9734 40.8744 42.5648 40.3425 42.5648Z" fill="#FE5602"/>
<path d="M51.4477 45.4653L53.9177 38.0554C54.2592 37.031 53.4966 35.9731 52.4168 35.9731H1.58323C0.50344 35.9731 -0.259099 37.0311 0.0824093 38.0554L2.55238 45.4653L0.0824093 52.8752C-0.258993 53.8996 0.50344 54.9575 1.58323 54.9575H52.4167C53.4966 54.9575 54.2591 53.8996 53.9176 52.8752L51.4477 45.4653ZM17.8136 41.9871L15.3532 45.7668L15.3436 49.6872C15.3418 50.4142 14.752 51.0023 14.0253 51.0023H14.022C13.294 51.0005 12.7051 50.4089 12.7069 49.6807L12.7165 45.7648L10.2368 41.9673C9.8388 41.3576 10.0103 40.5407 10.6199 40.1426C11.2295 39.7446 12.0465 39.9161 12.4445 40.5257L14.034 42.9601L15.6037 40.5487C16.0009 39.9385 16.8176 39.7658 17.4278 40.163C18.0381 40.5602 18.2108 41.3768 17.8136 41.9871ZM23.8041 44.1469C24.5323 44.1469 25.1225 44.7371 25.1225 45.4652C25.1225 46.1934 24.5323 46.7836 23.8041 46.7836H21.8293V48.3656H24.0662C24.7943 48.3656 25.3846 48.9559 25.3846 49.684C25.3846 50.412 24.7943 51.0023 24.0662 51.0023H20.511C19.7829 51.0023 19.1926 50.412 19.1926 49.684V41.2465C19.1926 40.5184 19.7829 39.9281 20.511 39.9281H24.0662C24.7943 39.9281 25.3846 40.5184 25.3846 41.2465C25.3846 41.9745 24.7943 42.5648 24.0662 42.5648H21.8293V44.1469H23.8041ZM34.7929 50.9174C34.1117 51.1746 33.3511 50.8306 33.094 50.1495L32.634 48.9305H29.3636L28.8979 50.1532C28.6388 50.8336 27.8771 51.1751 27.1967 50.916C26.5164 50.6568 26.1749 49.8951 26.434 49.2147L29.6023 40.896C29.711 40.611 29.9039 40.3658 30.1552 40.193C30.4065 40.0201 30.7045 39.9277 31.0095 39.9281H31.0132C31.6242 39.9281 32.176 40.2966 32.4069 40.8624C32.412 40.8747 32.4168 40.887 32.4216 40.8995L35.561 49.2185C35.818 49.8998 35.4741 50.6604 34.7929 50.9174ZM43.649 48.8129C44.1301 49.3594 44.0769 50.1925 43.5304 50.6736C42.9838 51.1546 42.1507 51.1016 41.6697 50.5549L39.4159 47.9943V49.684C39.4159 50.412 38.8256 51.0023 38.0976 51.0023C37.3695 51.0023 36.7792 50.412 36.7792 49.684V41.2465C36.7792 40.5184 37.3695 39.9281 38.0976 39.9281L38.0989 39.9282L38.1003 39.9281H40.3425C42.3469 39.9281 43.9777 41.5033 43.9777 43.4394C43.9777 44.8886 43.0638 46.1354 41.7636 46.6708L43.649 48.8129Z" fill="white"/>
<path d="M30.3677 46.2941H31.6388L31.0062 44.6177L30.3677 46.2941Z" fill="black"/>
</svg>
