<svg width="61" height="55" viewBox="0 0 61 55" fill="none" xmlns="http://www.w3.org/2000/svg">
<path d="M56.9438 0.95752H3.77172C1.65588 0.95752 0 2.6134 0 4.63725V39.1347C0 41.1585 1.65588 42.9064 3.77172 42.9064H57.0358C59.0596 42.9064 60.8075 41.2505 60.8075 39.1347V4.63725C60.7155 2.6134 59.0596 0.95752 56.9438 0.95752ZM30.3577 37.1108C21.9864 37.1108 15.0869 30.3033 15.0869 21.84C15.0869 13.4686 21.8944 6.5691 30.3577 6.5691C38.7291 6.5691 45.6286 13.3766 45.6286 21.84C45.6286 30.3033 38.7291 37.1108 30.3577 37.1108Z" fill="#FE5602"/>
<path d="M37.2574 21.9315C37.2574 22.8514 36.7975 23.6793 35.9695 24.2313L28.3341 28.831C27.8741 29.1069 27.4142 29.1989 26.9542 29.1989C26.4942 29.1989 26.0343 29.1069 25.6663 28.831C24.8383 28.371 24.2864 27.4511 24.2864 26.5311V17.3318C24.2864 16.4119 24.7464 15.492 25.6663 15.032C26.4942 14.572 27.5061 14.572 28.3341 15.032L35.9695 19.6316C36.7975 20.0916 37.2574 20.9196 37.2574 21.9315ZM60.7157 51.3693C60.7157 51.8293 60.3477 52.2892 59.7957 52.2892H15.731C15.1791 53.8531 13.5232 54.957 11.4073 54.957C9.38349 54.957 7.63562 53.8531 7.08366 52.2892H1.74806C1.1961 52.2892 0.828125 51.8293 0.828125 51.3693C0.828125 50.8173 1.1961 50.4494 1.74806 50.4494H7.08366C7.54363 48.8855 9.2915 47.7816 11.4073 47.7816C13.5232 47.7816 15.1791 48.8855 15.731 50.4494H59.7957C60.3477 50.4494 60.7157 50.8173 60.7157 51.3693Z" fill="white"/>
</svg>
